<svg id="Layer_1" data-name="Layer 1" xmlns="http://www.w3.org/2000/svg" viewBox="0 0 200.39 160.21"><defs><style>.cls-1{fill:#505050;}</style></defs><title>3</title><path class="cls-1" d="M82,44c1.71,10.14-.39,28.84-9,38.44l1.61,1.44C84.88,72.4,85.71,51.25,83.86,42.49l-.22-1.05-1.05.22C76.69,42.89,70,47.78,65.24,54.43L67,55.69C71.19,49.87,76.84,45.5,82,44Z" transform="translate(-21.94 -41.31)"/><path class="cls-1" d="M42.38,77.34c-1.5-9.3.61-19.67,5.14-25.81,4.91,6.22,9.53,18,9.2,28.11l2.15.07c.37-11.68-5.17-24.48-10.57-30.6l-.82-.93-.81.94c-5.54,6.51-8.12,18-6.42,28.56Z" transform="translate(-21.94 -41.31)"/><path class="cls-1" d="M46.95,125.91l.24-2.14c-20.33-2.3-22.87-28.31-23.08-38.46,7.87,2.81,17.18,8.27,19.43,15.25l2-.66C42.95,91.71,32,85.55,23.35,82.77l-1.41-.46v1.48C21.94,93,23.74,123.28,46.95,125.91Z" transform="translate(-21.94 -41.31)"/><path class="cls-1" d="M60,128.25l1.37-1.66C57,123,55,118.5,55.51,113.3c.8-7.94,7.54-16.14,13.89-19.88,4.37,6.25,6.46,16.43,1,25l1.81,1.16c6.25-9.76,3.52-21.45-1.66-28.18L70,90.63l-.81.43c-7,3.71-14.89,12.69-15.83,22C52.78,119,55.07,124.2,60,128.25Z" transform="translate(-21.94 -41.31)"/><path class="cls-1" d="M70.51,136.35l-1.07-.46-.38,1.1c-2,5.88-5.71,20.49,3.83,29.11l1.44-1.6c-8-7.26-5.52-19.63-3.61-25.67,5.5,2.7,13.49,9,15.61,17,1.24,4.68.21,9.26-3.07,13.61l1.72,1.3c3.69-4.9,4.85-10.1,3.43-15.46C86,146,76.37,138.88,70.51,136.35Z" transform="translate(-21.94 -41.31)"/><path class="cls-1" d="M62.06,167l-.51-2.1a21.33,21.33,0,0,1-18.43-3.51c-9.6-7.09-13.81-20.56-14.6-27.16,12.87.91,22.58,5,28.14,11.85l1.67-1.36c-6.13-7.56-16.83-12-30.94-12.73L26.18,132l.08,1.21c.51,8,5.68,22.67,15.59,30A22.87,22.87,0,0,0,55.7,167.8,27.24,27.24,0,0,0,62.06,167Z" transform="translate(-21.94 -41.31)"/><path class="cls-1" d="M51.54,178.28l-1.4.41.81,1.22c6,9,19.75,21.62,37.67,21.62a42.92,42.92,0,0,0,21.13-5.87l.75-.42-.25-.82C103.83,173,63.48,174.78,51.54,178.28ZM53.62,180c12.5-2.93,47.84-3.8,54.28,14.24C78.47,210.05,58.07,185.94,53.62,180Z" transform="translate(-21.94 -41.31)"/><path class="cls-1" d="M171.28,82.47c-8.55-9.57-10.67-28.16-9-38.33a33.82,33.82,0,0,1,15,11.55L179,54.43A35.22,35.22,0,0,0,161.8,41.68l-1.14-.37-.25,1.17c-1.84,8.77-1,29.92,9.27,41.42Z" transform="translate(-21.94 -41.31)"/><path class="cls-1" d="M187.55,79.64c-.32-10.16,4.3-21.9,9.2-28.11,4.53,6.14,6.63,16.52,5.14,25.81l2.13.34c1.7-10.57-.88-22-6.43-28.56l-.8-.94-.82.93C190.56,55.22,185,68,185.39,79.71Z" transform="translate(-21.94 -41.31)"/><path class="cls-1" d="M220.92,82.77c-8.61,2.79-19.6,8.94-22.24,17.13l2.05.66c2.25-7,11.56-12.45,19.43-15.25-.21,10.15-2.75,36.16-23.08,38.46l.24,2.14c23.2-2.63,25-32.9,25-42.12V82.31Z" transform="translate(-21.94 -41.31)"/><path class="cls-1" d="M174.27,90.63l-.56.72c-5.18,6.73-7.91,18.43-1.66,28.18l1.82-1.16c-5.47-8.53-3.37-18.71,1-25,6.35,3.75,13.09,11.95,13.89,19.89.52,5.19-1.45,9.66-5.85,13.29l1.37,1.66c4.92-4.05,7.2-9.29,6.62-15.16-.93-9.33-8.85-18.32-15.83-22Z" transform="translate(-21.94 -41.31)"/><path class="cls-1" d="M161,169.42c-3.27-4.35-4.31-8.93-3.06-13.61,2.12-8,10.11-14.28,15.61-17,1.9,6,4.42,18.41-3.62,25.67l1.45,1.6c9.54-8.61,5.86-23.22,3.83-29.11l-.38-1.1-1.06.46c-5.86,2.53-15.46,9.64-17.92,18.9-1.42,5.35-.27,10.55,3.43,15.46Z" transform="translate(-21.94 -41.31)"/><path class="cls-1" d="M185.94,144.74l1.67,1.36c5.56-6.85,15.27-10.94,28.14-11.85-.8,6.59-5,20.07-14.6,27.16a21.31,21.31,0,0,1-18.43,3.51l-.51,2.1a27.23,27.23,0,0,0,6.35.79,22.87,22.87,0,0,0,13.86-4.66c9.91-7.31,15.08-21.93,15.59-30l.08-1.21-1.21.06C202.77,132.78,192.07,137.18,185.94,144.74Z" transform="translate(-21.94 -41.31)"/><path class="cls-1" d="M134,194.41l-.25.82.75.42a42.88,42.88,0,0,0,21.13,5.87c17.91,0,31.71-12.63,37.66-21.62l.81-1.22-1.4-.41C180.8,174.78,140.44,173,134,194.41Zm2.33-.21c6.44-18,41.79-17.17,54.29-14.24C186.2,185.95,165.81,210,136.36,194.2Z" transform="translate(-21.94 -41.31)"/></svg>