<svg id="Layer_1" data-name="Layer 1" xmlns="http://www.w3.org/2000/svg" viewBox="0 0 178.84 197.6"><defs><style>.cls-1{fill:#505050;}</style></defs><title>4</title><path class="cls-1" d="M122.33,123a26.93,26.93,0,1,0,26.93,26.93A27,27,0,0,0,122.33,123Zm0,51.71a24.78,24.78,0,1,1,24.78-24.78A24.81,24.81,0,0,1,122.33,174.72Z" transform="translate(-26.45 -23.89)"/><path class="cls-1" d="M122.37,135.94a14,14,0,1,0,14,14A14,14,0,0,0,122.37,135.94Zm0,25.86a11.85,11.85,0,1,1,11.85-11.85A11.86,11.86,0,0,1,122.37,161.79Z" transform="translate(-26.45 -23.89)"/><polygon class="cls-1" points="107.73 192.4 95.88 180.55 84.03 192.4 84.03 160.53 81.88 160.53 81.88 197.6 95.88 183.6 109.89 197.6 109.89 160.53 107.73 160.53 107.73 192.4"/><rect class="cls-1" x="61.41" y="51.71" width="68.95" height="2.15"/><rect class="cls-1" x="78.65" y="68.95" width="34.48" height="2.15"/><path class="cls-1" d="M205.29,37.9a14,14,0,0,0-14-14h-125a14,14,0,0,0-14,14V179H26.45v9.7a14,14,0,0,0,14,14h60.33v-2.15H47.88a14,14,0,0,0,6.58-11.85V37.9a11.85,11.85,0,1,1,23.7,0v9.7H181.59V188.73a11.86,11.86,0,0,1-11.85,11.85H143.88v2.15h25.86a14,14,0,0,0,14-14V47.59h21.55ZM40.46,200.58A11.86,11.86,0,0,1,28.6,188.73v-7.54h23.7v7.54A11.86,11.86,0,0,1,40.46,200.58ZM203.14,45.44H80.32V37.9A14,14,0,0,0,73.77,26H191.28A11.86,11.86,0,0,1,203.14,37.9Z" transform="translate(-26.45 -23.89)"/></svg>