<svg id="Layer_1" data-name="Layer 1" xmlns="http://www.w3.org/2000/svg" viewBox="0 0 204.56 182.43"><defs><style>.cls-1{fill:#505050;}</style></defs><title>1</title><path class="cls-1" d="M221.38,189.23a1.31,1.31,0,0,0,.11-.52V89.52a1.32,1.32,0,0,0-.08-.46c-.12-.32-3.11-7.87-10-10.77-3.86-1.63-8.14-1.46-12.72.51a1.28,1.28,0,0,0-.77,1.17V185.09a1.27,1.27,0,0,0,.6,1.08,1.31,1.31,0,0,0,1.23.06c.53-.25,13-6.17,19.25,3.82,0,.06,2.1,6.69-.83,12.19-1.63,3.06-4.54,5.22-8.65,6.43H30c-1.8-.78-13.17-6.27-8.73-18.22,0,0,3.19-5,8.52-6.09,3.22-.66,6.6.23,10.06,2.64a1.25,1.25,0,0,0,1.31.08,1.27,1.27,0,0,0,.69-1.12l.85-103.43a1.28,1.28,0,0,0-.49-1c-.26-.2-6.34-4.84-13.05-3.1-4.44,1.16-8,4.8-10.55,10.83a1.22,1.22,0,0,0-.1.49l-.74,104.47a1.33,1.33,0,0,0,0,.32C16.9,206,29.09,211.07,29.23,211.13a1.28,1.28,0,0,0,.47.09h180a1.18,1.18,0,0,0,.35,0c4.89-1.39,8.37-4,10.36-7.73C223.6,197.48,221.84,190.68,221.38,189.23ZM218.94,186a14.66,14.66,0,0,0-10.69-4.17,24.37,24.37,0,0,0-7.79,1.38V80.82a13,13,0,0,1,9.94-.19c5.31,2.23,8,8,8.54,9.15ZM21,90c2.22-5.12,5.16-8.19,8.73-9.12,4.5-1.17,8.91,1.34,10.36,2.3l-.83,100.49a14.49,14.49,0,0,0-10-1.81,16.39,16.39,0,0,0-8.92,5.6Z" transform="translate(-17.72 -28.78)"/><path class="cls-1" d="M109.92,105.82l-15.4,39.35a72.79,72.79,0,0,1-20.77-14.88A1.27,1.27,0,0,0,71.88,132,77.15,77.15,0,0,0,93.7,147.27L78,187.39a1.27,1.27,0,0,0,.72,1.65,1.27,1.27,0,0,0,1.65-.72l15.65-40a64.24,64.24,0,0,0,23,5.3v17.57h2.55V153.65a61.48,61.48,0,0,0,22.55-4.55l14.56,38.36a1.27,1.27,0,0,0,2.38-.91L146.5,148.1a88.27,88.27,0,0,0,22.42-14.72,1.27,1.27,0,1,0-1.68-1.91,87.47,87.47,0,0,1-21.62,14.31l-15.22-40.12a22.5,22.5,0,0,0-6.86-42.19l7.34-6.06a1.27,1.27,0,0,0,.46-1V39.83a1.27,1.27,0,0,0-.37-.9l-9.73-9.77a1.27,1.27,0,0,0-.9-.38h0a1.28,1.28,0,0,0-.91.38l-9.59,9.77a1.29,1.29,0,0,0-.36.89V56.39a1.28,1.28,0,0,0,.45,1l7.15,6a22.5,22.5,0,0,0-7.14,42.43Zm33.35,41a59.32,59.32,0,0,1-21.67,4.57V132.74h-2.55v18.59a60.31,60.31,0,0,1-22.2-5.1l15.41-39.39a22.48,22.48,0,0,0,15.81-.12ZM113.2,104.44l7.11-18.17,6.85,18a19.62,19.62,0,0,1-14,.12ZM112,40.35l8.32-8.48,8.45,8.48V55.83l-8.45,7-8.33-7Zm8,25.39a20,20,0,0,1,9.47,37.52l-8-21a1.27,1.27,0,0,0-1.18-.82h0a1.27,1.27,0,0,0-1.18.81l-8.28,21.16A19.95,19.95,0,0,1,120,65.74Z" transform="translate(-17.72 -28.78)"/><rect class="cls-1" x="33.64" y="62.22" width="38.44" height="2.55"/><rect class="cls-1" x="132.72" y="62.22" width="38.44" height="2.55"/></svg>